<?xml version="1.0" encoding="UTF-8"?>
<svg xmlns="http://www.w3.org/2000/svg" viewBox="930 0 412 387" fill="#CDEB05">
  <path d="M1009.28,129.02c-18.71,3.56-35.3,7.79-49.84,12.77,4.53-16.31,11.15-31.75,19.58-46.03,11.67-4.34,23.26-6.71,33.83-6.71,25,0,35.72,14.67,35.72,22.77,0,6.58-3.06,10.12-13.78,12.14l-25.52,5.06ZM1243.56,342.71h-66.79l123.29-269.4C1264.37,28.65,1209.2,0,1147.28,0c-33.99,0-65.95,8.64-93.77,23.82,52.59,9.84,82.84,42.91,82.84,92.05v112.33c0,10.63,6.12,16.7,17.35,16.7,5.61,0,10.72-1.52,16.33-4.05l14.8,56.16c-12.76,8.1-30.48,13.44-51.92,13.44-39.29,0-66.99-16.98-77.19-44.8-16.19,22.32-38.49,36.75-65.25,42.14,35.48,47.64,92.5,78.54,156.81,78.54,107.59,0,194.81-86.48,194.81-193.16,0-17.59-2.39-34.63-6.83-50.83l-91.7,200.38ZM1050.62,221.62v-51.61c-3.57,3.54-12.76,8.1-26.03,10.62-40.31,7.59-58.69,19.23-58.69,39.98,0,16.7,11.74,25.3,31.13,25.3s37.25-8.1,53.58-24.29Z"/>
</svg>
